# xmcd
#
# Track frame offsets:
#	150
#	18785
#	31765
#	44763
#	56696
#	70031
#	81290
#	95269
#	113499
#	125678
#	140820
#	157933
#	182140
#	196997
#	208325
#
# Disc length: 2960 seconds
# Revision: 0
# Processed by: cddbd v1.5.2PL0 Copyright (c) Steve Scherf et al.
# Submitted via: dBpowerAMP V12.0
#
DISCID=cf0b8e0f
DTITLE=Johnny Cash - The Music of Johnny Cash
DYEAR=1965
DGENRE=country
TTITLE0=Sunday Mornin' Comin' Down
TTITLE1=Wanted Man
TTITLE2=Man In Black
TTITLE3=What Is Truth
TTITLE4=Singing in the Viet Nam Talkin' Blues
TTITLE5=Route #1, Box 144
TTITLE6=Oney
TTITLE7=One Piece at a Time
TTITLE8=Hit the Road and Go
TTITLE9=Rockabilly Blues
TTITLE10=Ghost Riders in the Sky
TTITLE11=Highway Patrolman
TTITLE12=There Ain't No Good Chain Gang
TTITLE13=Without Love
TTITLE14=Highwayman
EXTD=
EXTT0=
EXTT1=
EXTT2=
EXTT3=
EXTT4=
EXTT5=
EXTT6=
EXTT7=
EXTT8=
EXTT9=
EXTT10=
EXTT11=
EXTT12=
EXTT13=
EXTT14=
PLAYORDER=
